# xmcd
#
# Track frame offsets:
#	150
#	16535
#	28744
#	43770
#	57678
#	70981
#	83935
#	96307
#	108342
#	123203
#
# Disc length: 1792 seconds
#
# Revision: 0
# Processed by: cddbd v1.5.2PL0 Copyright (c) Steve Scherf et al.
# Submitted via: EasyCDDAExtractor 16.0.6.1
#
DISCID=8206fe0a
DTITLE=Συλλογικός δίσκος - Λαϊκό τραγούδι 1954-1967, 1963-2
DYEAR=2008
DGENRE=Λαϊκή
TTITLE0=Καζαντζίδης Στέλιος - Στο άδειο προσκεφάλι [Μπάμπης Δαλιάνης-Χρ. Κολοκ
TTITLE0=οτρώνης]
TTITLE1=Καζαντζίδης Στέλιος - Έγινα μόνος μου γιατρός [Μανώλης Χιώτης-Χρ. Κολο
TTITLE1=κοτρώνης]
TTITLE2=Πάνου Πόλυ - Εγώ εσένα αγαπώ [Γιάννης Καραμπεσίνης]
TTITLE3=Αναγνωστάκης Πέτρος - Δεν ανθίζουν τα λουλούδια [Μπάμπης Μπακάλης-Δημ.
TTITLE3=Γκούτης]
TTITLE4=Γαβαλάς Πάνος-Κούρτη Ρία - Ο κουμπάρος ο Τσιτσάνης [Βασίλης Τσιτσάνης]
TTITLE5=Μιχαλόπουλος Πάνος - Λαχαναγορίτες γειά σας [Θανάσης Πολυκανδριώτης]
TTITLE6=Μαρκάκης Μπάμπης-Καλάκη Ρούλα - Χιλιάδες μπόρες έχω περάσει [Μπάμπης Μ
TTITLE6=πακάλης]
TTITLE7=Αγγελόπουλος Μανώλης - Κτυπούν καμπάνες [Μανώλης Αγγελόπουλος-Νίκος Δα
TTITLE7=λέζιος]
TTITLE8=Ρεπάνης Αντώνης - Μού στέρεψες το δάκρυ μου [Στέλιος Μακρυδάκης]
TTITLE9=Ζαμπέτας Γιώργος-χορωδία - Ο μαθητής [Γιώργος Ζαμπέτας-Χαράλαμπος Βασι
TTITLE9=λειάδης]
EXTD=
EXTT0=
EXTT1=
EXTT2=
EXTT3=
EXTT4=
EXTT5=
EXTT6=
EXTT7=
EXTT8=
EXTT9=
PLAYORDER=
